<svg width="38" height="38" viewBox="0 0 38 38" fill="none" xmlns="http://www.w3.org/2000/svg">
<g id="el:hand-right">
<path id="Vector" d="M0 30.7843V17.6265C0.0694133 16.2341 1.19662 15.2286 2.4351 15.2119H8.32846C10.013 13.9182 11.2069 12.1227 12.8304 10.8225C13.4033 10.3655 13.8467 9.85738 14.1604 9.29805C15.1806 7.29415 14.5625 4.96117 16.0123 3.36375C18.9259 2.11348 22.4163 3.86253 23.3995 6.60714C24.1723 8.84851 23.6545 11.0837 22.6935 13.0632C26.1723 13.0575 29.651 13.0857 33.1297 13.1042C35.9618 13.3156 37.9811 15.2224 37.9999 17.9335C37.9922 20.6655 35.6369 22.6523 33.1297 22.7013H29.0371C28.9007 23.5062 28.6346 24.2361 28.239 24.8909C28.4683 26.5738 27.9437 28.2237 26.9294 29.4133C26.3729 39.127 13.6471 33.3641 8.88095 33.2194H2.4351C1.03287 33.153 0.01672 32.029 0 30.7843ZM8.77867 30.7843C12.5921 30.8664 25.6224 36.6318 24.3716 28.3697C25.7505 27.6264 26.2811 25.6373 25.4356 24.3794C26.7202 23.1125 27.0861 21.521 25.8449 20.2663C27.0727 20.2663 28.2869 20.2594 29.4873 20.2458C30.6879 20.2322 31.902 20.2254 33.1298 20.2254C34.5348 20.1958 35.5086 19.1649 35.5239 17.9335C35.4918 16.4776 34.3867 15.5542 33.1298 15.5393C28.3676 15.5391 23.6731 15.4989 19.2558 15.4984C19.6533 12.3076 23.4601 7.97489 19.573 5.46125C18.9507 5.15561 18.453 5.02587 17.8029 5.14405C17.6938 5.19861 17.6324 5.2532 17.6188 5.30776C17.6051 5.36233 17.5847 5.45099 17.5574 5.57376C17.1443 8.10298 16.7587 10.6319 14.7949 12.3061C12.6332 13.9637 11.3586 16.5732 8.88107 17.6266H8.77876L8.77867 30.7843Z" fill="black"/>
</g>
</svg>
