<svg width="50" height="50" viewBox="0 0 50 50" fill="none" xmlns="http://www.w3.org/2000/svg">
<g id="fluent:swipe-right-24-filled">
<path id="Vector" d="M12.5 25.0001C12.5 25.5526 12.7195 26.0825 13.1102 26.4732C13.5009 26.8639 14.0308 27.0834 14.5834 27.0834H38.7188L36.0271 29.7771C35.6684 30.1359 35.4529 30.6132 35.4211 31.1195C35.3893 31.6258 35.5432 32.1263 35.8542 32.5271L36.0271 32.723C36.3858 33.0817 36.8631 33.2972 37.3694 33.329C37.8757 33.3608 38.3763 33.2068 38.7771 32.8959L38.9729 32.723L45.2229 26.473C45.5816 26.1142 45.7971 25.6369 45.829 25.1306C45.8608 24.6243 45.7068 24.1238 45.3959 23.723L45.2229 23.5271L38.9729 17.2771C38.598 16.9035 38.095 16.6866 37.5659 16.6704C37.0368 16.6543 36.5215 16.8401 36.1244 17.1902C35.7274 17.5402 35.4786 18.0283 35.4284 18.5552C35.3782 19.0821 35.5304 19.6084 35.8542 20.0271L36.0271 20.223L38.7188 22.9167H14.5834C14.0308 22.9167 13.5009 23.1362 13.1102 23.5269C12.7195 23.9176 12.5 24.4475 12.5 25.0001ZM4.16669 25.0001C4.16512 27.3944 4.98846 29.7162 6.49811 31.5747C8.00777 33.4331 10.1116 34.7148 12.4554 35.2039C14.7993 35.693 17.2401 35.3597 19.367 34.2602C21.494 33.1606 23.1772 31.3619 24.1334 29.1667H20.5667C19.6796 30.4407 18.4092 31.3983 16.9402 31.9001C15.4712 32.402 13.8804 32.422 12.3992 31.9571C10.9181 31.4922 9.62401 30.5668 8.70527 29.3155C7.78653 28.0643 7.2911 26.5524 7.2911 25.0001C7.2911 23.4477 7.78653 21.9359 8.70527 20.6846C9.62401 19.4333 10.9181 18.5079 12.3992 18.043C13.8804 17.5781 15.4712 17.5981 16.9402 18.1C18.4092 18.6019 19.6796 19.5594 20.5667 20.8334H24.1334C23.1756 18.6403 21.492 16.8438 19.3656 15.7458C17.2393 14.6478 14.7997 14.3153 12.4571 14.8042C10.1144 15.2931 8.0115 16.5735 6.50173 18.4303C4.99197 20.287 4.16742 22.6069 4.16669 25.0001Z" fill="black"/>
</g>
</svg>
